:FULLY-SPECIFIED
:DEGREES
110
root -21.80299949645996 17.522899627685547 23.552200317382812 90.00000933466734 -0.0 -0.0
lhipjoint -5.528973971617621e-07 -1.7075472925031877e-06 5.635377011264426e-07
lfemur -9.681009384285815 20.925746182816447 -5.415064047105789
ltibia 57.48755073440877 -28.31128095877001 9.390351537929568
lfoot 11.719316271309687 6.2331768488139225 -4.681847935459974
ltoes -0.4628734356761545 0.1800669451316907 0.16784129338355133
rhipjoint -1.4590168159163821e-06 -1.2806604693773908e-06 -1.1362305144035093e-07
rfemur -2.96244834375611 -29.977389493578727 11.377292841074006
rtibia 13.050214489579814 5.363977647208678 -4.542803213205086
rfoot 0.04400104246362748 1.6009990094936333 0.008442848359626333
rtoes 3.2766669276543157 1.2293727923431765 1.223275888013588
lowerback 6.646133074240655 -0.5618043502138522 -0.8417656400821826
upperback 0.28011326157736316 -3.573182514997494 -0.9817539956595904
thorax -3.41583267232356 -3.4798035837596646 -0.48276006505317554
lowerneck -15.361307179222948 8.926153098915284 -3.2789292143734707
upperneck 23.014802229147158 -4.745264961243073 -3.610823900956846
head 10.014462634660424 -2.6909722299101984 -1.958723016918764
lclavicle -1.1905593500282093e-07 5.336085289072462e-08 1.7916324053945998e-07
lhumerus -83.82271794741611 -29.717985739090814 -13.0338980214263
lradius 7.806105072474527e-07 -6.734313613694967e-07 28.40241788041278
lwrist -7.285303746714223e-07 -9.802192308087474 9.83912478486349e-07
lhand -22.666623090922002 -6.103913384337316 -14.284631163181633
lfingers -9.414104972780149e-07 5.958838404591767e-07 7.125023250159637
lthumb -44.10577922572267 -33.09268658534573 25.043375242830116
rclavicle -2.343282567121354e-08 -1.5207843073856516e-06 -8.563986979746117e-08
rhumerus -73.10395181875336 28.01932110760323 27.179708151048363
rradius 1.7298862618083524e-07 2.1302606172204055e-06 -26.39619666078869
rwrist -4.280942125717554e-07 8.791260277902119 3.7946177582599404e-07
rhand 15.59146577123216 -3.1518240896745877 11.146578442421085
rfingers -4.6239122781278693e-07 1.3831930793101032e-07 -7.125021115725521
rthumb -4.890818426890161 15.446003232478398 -12.131052027309103
111
root -22.20829963684082 17.4596004486084 23.867902755737305 90.00000933466734 -0.0 -0.0
lhipjoint -5.528973971617621e-07 -1.7075472925031877e-06 5.635377011264426e-07
lfemur -14.975538094900626 20.849439309409064 -6.327754905137913
ltibia 60.12415401819543 -29.60261701382013 9.075981836095977
lfoot 5.247453339307791 5.080617004206944 -1.938510993060815
ltoes -6.008651882209501 2.4552914299570308 2.0760605442177056
rhipjoint -1.4590168159163821e-06 -1.2806604693773908e-06 -1.1362305144035093e-07
rfemur -2.791226813764703 -31.386068198569667 12.210960971730021
rtibia 16.4178964626889 6.928334719517603 -5.527704111803054
rfoot -3.1851466616443758 2.3045150040289992 -1.1427077236160583
rtoes 0.6623090363858559 0.25492547158948664 0.24234079468288527
lowerback 7.218653617736288 -1.0897366183948476 -0.8347182188800517
upperback 0.4478041707372552 -3.754321052776936 -0.918131103706039
thorax -3.5690325347464764 -3.375015888730387 -0.46038842075703346
lowerneck -15.235571934339475 8.54898578407895 -3.1153626188943555
upperneck 23.249711217724112 -3.8640181597155725 -3.2775215550742134
head 10.05166069865396 -2.361195542299762 -1.8812116823399319
lclavicle -1.1905593500282093e-07 5.336085289072462e-08 1.7916324053945998e-07
lhumerus -83.80808085202477 -30.31169993269417 -13.570030305231866
lradius 5.74200141751706e-07 -1.5066620339334548e-06 28.202114045265695
lwrist -7.471024731229237e-07 -10.034802084235075 1.0078377812444402e-06
lhand -23.52817632263824 -5.925586963505214 -13.339018793350048
lfingers -9.414104972780149e-07 5.958838404591767e-07 7.125023250159637
lthumb -44.99375162914852 -33.21117670706712 26.420875841807238
rclavicle -2.343282567121354e-08 -1.5207843073856516e-06 -8.563986979746117e-08
rhumerus -74.96968629243403 27.30064348049261 23.09675937654543
rradius 2.9382180425078306e-07 1.2831651180223872e-06 -27.812299781407432
rwrist -2.593006744046769e-07 5.226979420383855 2.3895911888390884e-07
rhand 14.021329931998581 -3.161233315586515 12.452660022115616
rfingers -4.6239122781278693e-07 1.3831930793101032e-07 -7.125021115725521
rthumb -6.647704871523405 15.810721673778739 -11.556486269043875
112
root -22.20829963684082 17.4596004486084 23.867902755737305 90.00000933466734 -0.0 -0.0
lhipjoint -5.528973971617621e-07 -1.7075472925031877e-06 5.635377011264426e-07
lfemur -14.975538094900626 20.849439309409064 -6.327754905137913
ltibia 60.12415401819543 -29.60261701382013 9.075981836095977
lfoot 5.247453339307791 5.080617004206944 -1.938510993060815
ltoes -6.008651882209501 2.4552914299570308 2.0760605442177056
rhipjoint -1.4590168159163821e-06 -1.2806604693773908e-06 -1.1362305144035093e-07
rfemur -2.791226813764703 -31.386068198569667 12.210960971730021
rtibia 16.4178964626889 6.928334719517603 -5.527704111803054
rfoot -3.1851466616443758 2.3045150040289992 -1.1427077236160583
rtoes 0.6623090363858559 0.25492547158948664 0.24234079468288527
lowerback 7.218653617736288 -1.0897366183948476 -0.8347182188800517
upperback 0.4478041707372552 -3.754321052776936 -0.918131103706039
thorax -3.5690325347464764 -3.375015888730387 -0.46038842075703346
lowerneck -15.235571934339475 8.54898578407895 -3.1153626188943555
upperneck 23.249711217724112 -3.8640181597155725 -3.2775215550742134
head 10.05166069865396 -2.361195542299762 -1.8812116823399319
lclavicle -1.1905593500282093e-07 5.336085289072462e-08 1.7916324053945998e-07
lhumerus -83.80808085202477 -30.31169993269417 -13.570030305231866
lradius 5.74200141751706e-07 -1.5066620339334548e-06 28.202114045265695
lwrist -7.471024731229237e-07 -10.034802084235075 1.0078377812444402e-06
lhand -23.52817632263824 -5.925586963505214 -13.339018793350048
lfingers -9.414104972780149e-07 5.958838404591767e-07 7.125023250159637
lthumb -44.99375162914852 -33.21117670706712 26.420875841807238
rclavicle -2.343282567121354e-08 -1.5207843073856516e-06 -8.563986979746117e-08
rhumerus -74.96968629243403 27.30064348049261 23.09675937654543
rradius 2.9382180425078306e-07 1.2831651180223872e-06 -27.812299781407432
rwrist -2.593006744046769e-07 5.226979420383855 2.3895911888390884e-07
rhand 14.021329931998581 -3.161233315586515 12.452660022115616
rfingers -4.6239122781278693e-07 1.3831930793101032e-07 -7.125021115725521
rthumb -6.647704871523405 15.810721673778739 -11.556486269043875
113
root -22.20829963684082 17.4596004486084 23.867902755737305 90.00000933466734 -0.0 -0.0
lhipjoint -5.528973971617621e-07 -1.7075472925031877e-06 5.635377011264426e-07
lfemur -14.975538094900626 20.849439309409064 -6.327754905137913
ltibia 60.12415401819543 -29.60261701382013 9.075981836095977
lfoot 5.247453339307791 5.080617004206944 -1.938510993060815
ltoes -6.008651882209501 2.4552914299570308 2.0760605442177056
rhipjoint -1.4590168159163821e-06 -1.2806604693773908e-06 -1.1362305144035093e-07
rfemur -2.791226813764703 -31.386068198569667 12.210960971730021
rtibia 16.4178964626889 6.928334719517603 -5.527704111803054
rfoot -3.1851466616443758 2.3045150040289992 -1.1427077236160583
rtoes 0.6623090363858559 0.25492547158948664 0.24234079468288527
lowerback 7.218653617736288 -1.0897366183948476 -0.8347182188800517
upperback 0.4478041707372552 -3.754321052776936 -0.918131103706039
thorax -3.5690325347464764 -3.375015888730387 -0.46038842075703346
lowerneck -15.235571934339475 8.54898578407895 -3.1153626188943555
upperneck 23.249711217724112 -3.8640181597155725 -3.2775215550742134
head 10.05166069865396 -2.361195542299762 -1.8812116823399319
lclavicle -1.1905593500282093e-07 5.336085289072462e-08 1.7916324053945998e-07
lhumerus -83.80808085202477 -30.31169993269417 -13.570030305231866
lradius 5.74200141751706e-07 -1.5066620339334548e-06 28.202114045265695
lwrist -7.471024731229237e-07 -10.034802084235075 1.0078377812444402e-06
lhand -23.52817632263824 -5.925586963505214 -13.339018793350048
lfingers -9.414104972780149e-07 5.958838404591767e-07 7.125023250159637
lthumb -44.99375162914852 -33.21117670706712 26.420875841807238
rclavicle -2.343282567121354e-08 -1.5207843073856516e-06 -8.563986979746117e-08
rhumerus -74.96968629243403 27.30064348049261 23.09675937654543
rradius 2.9382180425078306e-07 1.2831651180223872e-06 -27.812299781407432
rwrist -2.593006744046769e-07 5.226979420383855 2.3895911888390884e-07
rhand 14.021329931998581 -3.161233315586515 12.452660022115616
rfingers -4.6239122781278693e-07 1.3831930793101032e-07 -7.125021115725521
rthumb -6.647704871523405 15.810721673778739 -11.556486269043875
